<?xml version="1.0" encoding="UTF-8"?><svg id="Layer_2" xmlns="http://www.w3.org/2000/svg" width="408.281" height="408.281" viewBox="0 0 408.281 408.281"><g id="Layer_1-2"><path d="m395.523,192.771c-8.666-1.338-17.14,1.442-25.518,3.342-3.441.719-6.872,1.182-10.367,1.247-1.166-.325-1.617-2.5-2.392-3.185-.236-.213-.5-.463-.797-.27-.408.302-.816,2.031-1.196,2.623-.133.211-.266.281-.399.275,0,0-.797.064-.797.064-2.225.213-4.452.377-6.681.516-1.606-34.456-15.425-65.773-37.223-89.707,1.689-1.492,3.396-2.965,5.136-4.401,0,0,.609-.518.609-.518.354-.302.939.09,1.406.278.774.286,1.81,1.049,2.067.376.059-.129.078-.298.077-.487-.014-.766-.561-2.065-.703-2.958-.075-.451-.025-.777.142-.986.957-.926,1.962-1.797,2.989-2.65,8.315-6.782,19.168-10.551,25.631-19.478,2.368-2.705,3.106-7.056,2.524-11.009-.175-1.36-.522-2.957-.912-4.295-.231-.582-.302-1.234-.68-1.808-5.293-2.021-12.683-2.733-17.011,1.032-7.074,5.182-11.1,13.139-15.68,20.407-1.925,2.941-4.023,5.696-6.448,8.212-1.054.595-2.912-.624-3.944-.561-.317.016-.681.026-.755.373-.075.502.859,2.013,1.009,2.701.055.243.011.387-.087.477,0,0-.518.609-.519.609-1.436,1.74-2.909,3.447-4.401,5.136-23.931-21.795-55.245-35.613-89.697-37.222.145-2.231.315-4.46.505-6.682,0,0,.064-.797.064-.797.037-.464.728-.6,1.191-.797.749-.345,2.022-.538,1.728-1.196-.05-.133-.155-.266-.289-.399-.551-.532-1.857-1.063-2.589-1.595-.372-.266-.567-.532-.596-.797.022-1.331.117-2.658.24-3.987,1.084-10.675,6.093-21.015,4.35-31.897-.235-4.032-3.487-7.964-7.082-10.366-.713-.533-1.808-1.093-2.599-1.595-.575-.248-1.086-.659-1.759-.797-5.171,2.314-10.901,7.036-11.299,12.759-1.338,8.666,1.442,17.14,3.342,25.518.719,3.441,1.182,6.872,1.247,10.367-.325,1.166-2.5,1.618-3.185,2.392-.213.236-.463.5-.27.797.302.408,2.031.816,2.623,1.196.211.133.281.266.275.399,0,0,.064.797.064.797.213,2.225.377,4.453.516,6.681-34.456,1.606-65.773,15.425-89.707,37.222-1.492-1.689-2.965-3.396-4.401-5.136,0,0-.518-.609-.518-.609-.301-.354.09-.939.278-1.406.286-.774,1.049-1.81.376-2.067-.129-.059-.298-.078-.487-.077-.766.014-2.065.561-2.958.703-.451.075-.777.025-.986-.142-.925-.957-1.797-1.962-2.65-2.989-6.782-8.315-10.551-19.168-19.478-25.631-2.705-2.368-7.056-3.106-11.009-2.524-1.36.175-2.957.522-4.295.912-.582.231-1.234.302-1.807.68-2.02,5.293-2.733,12.683,1.032,17.011,5.182,7.074,13.139,11.1,20.407,15.68,2.941,1.925,5.696,4.023,8.212,6.448.595,1.054-.624,2.912-.561,3.944.016.317.026.681.373.755.502.076,2.013-.859,2.701-1.009.243-.055.387-.011.477.087,0,0,.609.518.609.518,1.74,1.436,3.447,2.909,5.136,4.401-21.795,23.931-35.613,55.245-37.222,89.697-2.231-.145-4.46-.315-6.682-.505,0,0-.797-.064-.797-.064-.464-.037-.6-.728-.797-1.191-.345-.75-.538-2.022-1.196-1.728-.133.05-.266.155-.399.289-.532.551-1.063,1.857-1.595,2.589-.266.372-.532.567-.797.596-1.331-.022-2.658-.117-3.987-.24-10.675-1.084-21.015-6.093-31.897-4.35-4.032.235-7.964,3.487-10.366,7.082-.533.713-1.093,1.808-1.595,2.599-.248.575-.659,1.086-.797,1.759,2.314,5.171,7.036,10.901,12.759,11.299,8.666,1.338,17.14-1.442,25.518-3.342,3.441-.719,6.872-1.182,10.367-1.247,1.166.325,1.618,2.5,2.392,3.185.236.213.5.463.797.27.408-.302.816-2.031,1.196-2.623.133-.211.266-.281.399-.275,0,0,.797-.064.797-.064,2.225-.213,4.452-.377,6.681-.516,1.606,34.456,15.425,65.773,37.222,89.707-1.689,1.492-3.396,2.965-5.136,4.401,0,0-.609.518-.609.518-.354.301-.939-.09-1.406-.278-.774-.286-1.81-1.049-2.067-.376-.059.129-.078.298-.077.487.014.766.561,2.065.703,2.958.075.451.025.777-.142.986-.957.925-1.962,1.797-2.989,2.65-8.315,6.782-19.168,10.551-25.631,19.478-2.368,2.705-3.106,7.056-2.524,11.009.175,1.36.522,2.957.912,4.295.231.582.302,1.234.68,1.807,5.293,2.021,12.683,2.733,17.011-1.032,7.074-5.182,11.1-13.139,15.68-20.407,1.925-2.941,4.023-5.696,6.448-8.212,1.054-.595,2.912.624,3.944.561.317-.016.681-.026.755-.373.075-.502-.859-2.013-1.009-2.701-.055-.243-.011-.387.087-.477,0,0,.518-.609.519-.609,1.436-1.74,2.909-3.447,4.401-5.136,23.931,21.795,55.245,35.613,89.697,37.222-.145,2.231-.315,4.46-.505,6.682,0,0-.064.797-.064.797-.037.464-.728.6-1.191.797-.75.345-2.022.538-1.728,1.196.05.133.155.266.289.399.551.532,1.857,1.063,2.589,1.595.372.266.567.532.596.797-.022,1.331-.117,2.658-.24,3.987-1.084,10.675-6.093,21.015-4.35,31.897.235,4.032,3.487,7.964,7.082,10.366.713.533,1.808,1.093,2.599,1.595.575.248,1.086.659,1.759.797,5.171-2.314,10.901-7.036,11.299-12.759,1.338-8.666-1.442-17.14-3.342-25.518-.719-3.441-1.182-6.872-1.248-10.367.325-1.166,2.5-1.618,3.185-2.392.212-.236.463-.5.27-.797-.302-.408-2.031-.816-2.623-1.196-.211-.133-.281-.266-.275-.399,0,0-.064-.797-.064-.797-.213-2.225-.377-4.452-.516-6.681,34.456-1.606,65.774-15.425,89.707-37.222,1.492,1.689,2.965,3.396,4.401,5.136,0,0,.518.609.518.609.302.354-.09.939-.278,1.406-.286.774-1.049,1.81-.376,2.067.129.059.298.078.487.077.766-.014,2.065-.561,2.958-.703.451-.075.777-.025.986.142.925.957,1.797,1.962,2.65,2.989,6.782,8.315,10.551,19.168,19.478,25.631,2.705,2.368,7.056,3.106,11.009,2.524,1.36-.175,2.957-.522,4.295-.912.582-.231,1.234-.302,1.807-.68,2.021-5.293,2.733-12.683-1.032-17.011-5.182-7.074-13.139-11.1-20.407-15.68-2.941-1.925-5.696-4.023-8.212-6.448-.595-1.054.624-2.912.561-3.944-.017-.317-.026-.681-.373-.755-.502-.075-2.013.859-2.701,1.009-.243.055-.387.011-.477-.087,0,0-.609-.518-.609-.519-1.74-1.436-3.447-2.909-5.136-4.401,21.795-23.931,35.613-55.245,37.222-89.697,2.231.145,4.46.315,6.681.505l.797.064c.464.037.6.728.797,1.191.345.749.538,2.022,1.196,1.728.133-.05.266-.155.399-.289.532-.551,1.063-1.857,1.595-2.589.266-.372.532-.567.797-.596,1.331.022,2.658.117,3.987.24,10.675,1.084,21.015,6.093,31.897,4.35,4.032-.235,7.964-3.487,10.366-7.082.533-.713,1.093-1.808,1.595-2.599.248-.575.659-1.086.797-1.759-2.314-5.171-7.036-10.901-12.759-11.299Zm-183.684-90.701c-.198-2.126-.395-4.253-.478-6.379.045-.266-.262-.532.491-.797.585-.218,1.966-.535,2.42-.797.257-.133.227-.266.211-.399-.221-1.258-1.647-1.922-2.492-2.791-.55-.532-.821-1.063-.805-1.595-.19-2.799-.379-5.597-.512-8.396,29.112,1.526,55.58,13.191,75.94,31.519-2.046,1.886-4.13,3.731-6.259,5.528-1.325,1.349-3.959-.298-5.432.77-.446.313.17.996.387,1.514l.628,1.192c.345.721-.061.691-.217.911-11.348,10.581-25.952,17.374-36.391,29.018-3.396,3.208.338,9.718-2.693,13.095-1.155.758-3.592-.269-4.941-.43-.526-.066-.977-.069-1.413.039-4.89-3.197-10.396-5.529-16.307-6.764-.231-.377-.549-.695-.96-1.012-1.072-.866-3.514-1.834-3.797-3.19.08-2.642,2.885-4.536,4.725-6.379,1.614-1.531,2.644-2.819,2.63-4.785.757-13.449-3.305-26.625-4.735-39.871Zm-14.224-21.155c-.113,2.801-.284,5.6-.52,8.396.017,1.891-3.01,2.588-3.296,4.386-.094.537.825.584,1.344.797l1.287.399c.753.266.445.532.491.797-.542,15.506-6.066,30.636-5.214,46.251-.133,4.67,7.11,6.633,7.355,11.164-.281,1.353-2.73,2.35-3.797,3.19-.414.321-.731.635-.962,1.013-5.911,1.236-11.417,3.568-16.307,6.765-.435-.107-.889-.108-1.411-.04-1.37.146-3.781,1.189-4.941.43-1.812-1.925-1.167-5.247-1.17-7.852.059-2.223-.124-3.863-1.524-5.243-8.974-10.045-21.164-16.49-31.541-24.845-1.644-1.363-3.286-2.728-4.849-4.173-.156-.22-.561-.19-.217-.911.259-.568,1.011-1.768,1.147-2.275.088-.276-.027-.349-.133-.431-1.476-1.068-4.106.579-5.432-.771-2.129-1.797-4.213-3.642-6.259-5.528,20.361-18.329,46.832-29.995,75.947-31.519Zm-85.181,40.752c1.886,2.046,3.731,4.13,5.528,6.259,1.349,1.325-.298,3.959.77,5.432.313.446.996-.17,1.514-.387l1.192-.628c.721-.345.691.061.911.217,10.581,11.348,17.374,25.952,29.018,36.391,3.208,3.396,9.718-.338,13.095,2.693.758,1.155-.268,3.592-.43,4.94-.066.526-.069.977.039,1.413-3.197,4.89-5.529,10.396-6.764,16.307-.377.231-.695.548-1.012.96-.866,1.072-1.834,3.514-3.19,3.797-2.642-.08-4.536-2.885-6.379-4.725-1.53-1.614-2.819-2.644-4.785-2.63-13.449-.757-26.625,3.305-39.871,4.735-2.126.198-4.253.395-6.379.478-.266-.045-.532.262-.797-.491-.218-.585-.535-1.965-.797-2.42-.133-.257-.266-.227-.399-.211-1.258.221-1.922,1.647-2.791,2.492-.532.55-1.063.821-1.595.805-2.799.19-5.597.379-8.396.512,1.526-29.112,13.191-55.581,31.519-75.94Zm6.729,153.123c-.275-.088-.348.027-.431.133-1.068,1.476.579,4.106-.771,5.432-1.797,2.129-3.642,4.213-5.528,6.259-18.329-20.361-29.995-46.832-31.519-75.947,2.801.113,5.6.284,8.396.52,1.891-.017,2.588,3.01,4.386,3.296.537.094.584-.825.797-1.344l.399-1.287c.266-.753.532-.445.797-.491,15.506.543,30.636,6.066,46.251,5.214,4.67.133,6.633-7.11,11.164-7.355,1.353.281,2.35,2.73,3.19,3.797.321.414.635.731,1.013.962,1.236,5.911,3.568,11.417,6.765,16.307-.107.435-.108.889-.04,1.41.146,1.37,1.188,3.782.43,4.941-1.925,1.812-5.247,1.167-7.852,1.17-2.223-.059-3.863.124-5.243,1.524-10.045,8.974-16.49,21.164-24.845,31.541-1.363,1.644-2.728,3.286-4.173,4.849-.22.156-.19.561-.911.217-.568-.259-1.768-1.011-2.275-1.147Zm77.279,31.421c.198,2.126.395,4.253.478,6.379-.045.266.262.532-.491.797-.585.218-1.966.535-2.42.797-.257.133-.227.266-.211.399.221,1.258,1.647,1.922,2.492,2.791.551.532.821,1.063.805,1.595.19,2.799.379,5.597.512,8.396-29.112-1.526-55.58-13.191-75.94-31.519,2.046-1.886,4.13-3.731,6.259-5.528,1.325-1.349,3.959.298,5.432-.77.446-.313-.17-.997-.387-1.514l-.628-1.192c-.345-.721.061-.691.217-.911,11.348-10.581,25.952-17.374,36.391-29.018,3.396-3.208-.338-9.718,2.693-13.095,1.155-.758,3.592.269,4.94.43.526.066.977.069,1.413-.039,4.89,3.197,10.395,5.529,16.307,6.764.231.377.549.695.96,1.012,1.072.866,3.514,1.834,3.797,3.19-.08,2.642-2.885,4.536-4.725,6.379-1.614,1.531-2.644,2.819-2.63,4.785-.757,13.449,3.305,26.625,4.735,39.871Zm7.698-76.59c-14.072,0-25.48-11.408-25.48-25.48s11.408-25.48,25.48-25.48,25.48,11.408,25.48,25.48-11.408,25.48-25.48,25.48Zm6.526,97.746c.113-2.801.284-5.6.52-8.396-.017-1.891,3.01-2.588,3.296-4.386.094-.537-.825-.584-1.344-.797l-1.287-.399c-.753-.266-.445-.532-.491-.797.543-15.506,6.066-30.636,5.214-46.251.133-4.67-7.11-6.633-7.355-11.164.281-1.353,2.73-2.35,3.797-3.19.414-.321.731-.635.962-1.013,5.911-1.236,11.417-3.568,16.307-6.765.435.107.889.108,1.411.04,1.37-.146,3.782-1.188,4.941-.43,1.812,1.925,1.167,5.247,1.17,7.852-.059,2.223.124,3.863,1.524,5.243,8.974,10.045,21.164,16.49,31.541,24.845,1.644,1.363,3.286,2.728,4.849,4.173.156.22.561.19.217.911-.259.568-1.011,1.768-1.147,2.275-.088.276.027.349.133.431,1.476,1.068,4.106-.579,5.432.771,2.129,1.797,4.213,3.642,6.259,5.528-20.361,18.329-46.832,29.995-75.948,31.519Zm85.181-40.752c-1.886-2.046-3.731-4.13-5.528-6.259-1.349-1.325.298-3.959-.771-5.432-.313-.446-.996.17-1.514.387l-1.192.628c-.72.345-.691-.061-.911-.217-10.581-11.348-17.374-25.952-29.018-36.391-3.208-3.396-9.718.338-13.095-2.693-.758-1.155.268-3.592.43-4.941.066-.526.069-.977-.039-1.413,3.197-4.89,5.529-10.396,6.764-16.307.377-.231.695-.549,1.012-.96.866-1.072,1.834-3.514,3.19-3.797,2.642.08,4.536,2.885,6.379,4.725,1.53,1.614,2.819,2.644,4.785,2.63,13.449.757,26.625-3.305,39.871-4.735,2.126-.198,4.253-.395,6.379-.478.266.045.532-.262.797.491.218.585.535,1.965.797,2.42.133.257.266.227.399.211,1.258-.221,1.922-1.647,2.791-2.492.532-.551,1.063-.821,1.595-.805,2.799-.19,5.598-.379,8.396-.512-1.526,29.112-13.191,55.581-31.519,75.94Zm23.123-89.519c-1.891.017-2.588-3.01-4.386-3.296-.537-.094-.584.825-.797,1.344l-.399,1.287c-.266.753-.532.445-.797.491-15.506-.543-30.636-6.066-46.251-5.214-4.67-.133-6.633,7.11-11.164,7.355-1.353-.281-2.35-2.73-3.19-3.797-.321-.414-.635-.731-1.013-.962-1.236-5.911-3.568-11.417-6.765-16.307.107-.435.108-.889.04-1.411-.146-1.37-1.188-3.781-.43-4.941,1.925-1.812,5.247-1.167,7.852-1.17,2.223.059,3.863-.124,5.243-1.524,10.045-8.974,16.49-21.164,24.845-31.541,1.363-1.644,2.728-3.286,4.173-4.849.22-.156.19-.561.911-.217.568.259,1.768,1.011,2.275,1.147.276.088.349-.027.431-.133,1.069-1.476-.579-4.106.771-5.432,1.797-2.129,3.642-4.213,5.528-6.259,18.329,20.361,29.995,46.832,31.52,75.948-2.801-.113-5.601-.284-8.397-.52Z"/></g></svg>